<svg width="227" height="41" viewBox="0 0 227 41" fill="none" xmlns="http://www.w3.org/2000/svg">
<path d="M16.9705 34.0609H16.8178C15.2319 33.7338 13.7462 33.0296 12.4841 32.007L12.2636 31.8016C12.2172 31.7685 12.1778 31.7263 12.1479 31.6775C12.118 31.6287 12.0981 31.5744 12.0894 31.5177C12.0807 31.461 12.0833 31.4032 12.0972 31.3475C12.1111 31.2919 12.136 31.2397 12.1703 31.194C12.6283 30.5436 13.0947 29.9017 13.5781 29.2684C13.6123 29.2203 13.6559 29.1799 13.7063 29.1497C13.7567 29.1195 13.8128 29.1002 13.8709 29.0929C13.9291 29.0857 13.9882 29.0907 14.0443 29.1077C14.1005 29.1246 14.1525 29.1531 14.1972 29.1914C14.4686 29.3626 14.723 29.5508 14.9944 29.722C15.4863 30.0301 15.7068 29.9873 16.0291 29.5166C16.5549 28.7549 17.0723 28.0018 17.5726 27.2316C17.6738 27.0444 17.8276 26.8916 18.0148 26.7925C18.202 26.6935 18.4141 26.6527 18.6243 26.6754C19.902 26.7438 21.1827 26.8037 22.4661 26.8551C22.6972 26.848 22.925 26.9111 23.1201 27.0362C23.3151 27.1613 23.4685 27.3427 23.5601 27.5568C23.9418 28.3356 24.4082 29.0887 24.7984 29.8504C25.1037 30.3895 25.3326 30.458 25.8754 30.167C26.0959 30.0558 26.308 29.9103 26.5285 29.799C26.5889 29.7516 26.6591 29.7184 26.7338 29.7017C26.8086 29.685 26.8861 29.6853 26.9607 29.7025C27.0354 29.7197 27.1053 29.7534 27.1655 29.8012C27.2257 29.8489 27.2746 29.9096 27.3087 29.9787C27.6903 30.5863 28.055 31.2111 28.4112 31.8272C28.4532 31.8858 28.4826 31.9525 28.4977 32.0232C28.5127 32.0938 28.5131 32.1668 28.4987 32.2376C28.4844 32.3084 28.4556 32.3754 28.4143 32.4344C28.3729 32.4934 28.3199 32.5431 28.2586 32.5803C27.9936 32.7919 27.7097 32.9781 27.4105 33.1366C26.2517 33.7473 25.0032 34.1663 23.7128 34.3775C23.5596 34.3961 23.4041 34.3805 23.2576 34.3317C23.111 34.2829 22.9769 34.2021 22.8647 34.0951C22.1565 33.445 21.2483 33.0605 20.2925 33.006C19.3367 32.9514 18.3913 33.2302 17.615 33.7956C17.4215 33.9145 17.2204 34.0203 17.0129 34.1122L16.9705 34.0609Z" fill="#AD0000"/>
<path d="M36.6539 18.3656C36.5521 19.2214 36.4673 19.9146 36.391 20.6163C36.3761 20.7828 36.3212 20.943 36.2311 21.0832C36.1409 21.2234 36.0182 21.3393 35.8736 21.4208C35.033 21.9053 34.3855 22.6697 34.042 23.583C33.6985 24.4964 33.6804 25.5018 33.9909 26.4272C34.0515 26.5834 34.0739 26.7521 34.0562 26.919C34.0385 27.0858 33.9812 27.2459 33.8891 27.3856C33.1085 28.7122 32.0418 29.8442 30.7681 30.6976L30.4543 30.8773C30.3519 30.946 30.2266 30.9711 30.1059 30.947C29.9852 30.923 29.8787 30.8518 29.8098 30.7489C29.3518 30.1213 28.9023 29.488 28.4613 28.8491C28.3934 28.7569 28.3642 28.6414 28.3801 28.5277C28.3959 28.4139 28.4556 28.3111 28.5461 28.2414C28.7836 28.0532 29.0296 27.8735 29.2585 27.6766C29.6656 27.3257 29.708 27.1032 29.3942 26.6668C28.9363 26.0249 28.4444 25.4088 27.9779 24.784C27.8517 24.6262 27.7355 24.4604 27.6302 24.2877C27.5463 24.1638 27.4932 24.0213 27.4755 23.8723C27.4578 23.7234 27.4759 23.5723 27.5284 23.4319C28.0119 22.1054 28.5122 20.7789 28.9956 19.4524C29.0518 19.2991 29.1504 19.1652 29.2797 19.0666C29.4089 18.9681 29.5635 18.9089 29.725 18.8962L32.3201 18.3998L32.6763 18.3142C32.7517 18.3041 32.8242 18.2784 32.8892 18.2387C32.9542 18.1989 33.0104 18.1461 33.0542 18.0834C33.098 18.0207 33.1285 17.9495 33.1437 17.8744C33.159 17.7992 33.1587 17.7217 33.1428 17.6467C33.1428 17.2873 33.041 16.9278 32.9986 16.5684C32.9562 16.209 32.9986 16.0378 33.4142 15.9437C34.1096 15.7554 34.8135 15.6014 35.5174 15.4473C35.7803 15.3874 36.0433 15.4473 36.1026 15.7383C36.3146 16.6112 36.4927 17.5526 36.6539 18.3656Z" fill="#AD0000"/>
<path d="M6.49635 25.888C6.55059 25.6503 6.61856 25.4159 6.69989 25.1862C7.02647 24.3447 7.06709 23.4177 6.81538 22.5504C6.56367 21.6831 6.03387 20.9246 5.30902 20.3938C5.11809 20.2668 4.96304 20.092 4.859 19.8865C4.75495 19.6811 4.70546 19.4519 4.71536 19.2213C4.62598 17.8635 4.79585 16.5009 5.21573 15.2077C5.35563 14.9018 5.53223 14.6143 5.74155 14.3519C5.78326 14.3166 5.83278 14.2919 5.88592 14.28C5.93906 14.2681 5.99426 14.2693 6.04686 14.2834C6.75925 14.523 7.46317 14.7883 8.17556 15.0279C8.27421 15.0502 8.36174 15.1072 8.42238 15.1888C8.48302 15.2704 8.51279 15.3712 8.50632 15.473C8.48657 15.7252 8.4411 15.9747 8.37062 16.2175C8.09075 17.0733 8.18404 17.3129 9.07454 17.5697C9.96503 17.8264 10.6944 18.0489 11.5001 18.2714C11.6819 18.3108 11.8487 18.4018 11.9809 18.5337C12.1132 18.6657 12.2053 18.833 12.2464 19.0159C12.5941 20.3082 12.9418 21.5833 13.315 22.8756C13.3837 23.081 13.3914 23.3023 13.3372 23.5121C13.2829 23.7219 13.1691 23.9112 13.0097 24.0566C12.3991 24.6813 11.8224 25.3317 11.2456 25.9736C10.7962 26.4699 10.8046 26.701 11.2456 27.1802C11.4407 27.3685 11.6527 27.5397 11.8393 27.7365C11.8922 27.7781 11.9349 27.8313 11.9644 27.8921C11.9938 27.9529 12.0091 28.0197 12.0091 28.0874C12.0091 28.155 11.9938 28.2218 11.9644 28.2826C11.9349 28.3434 11.8922 28.3966 11.8393 28.4382C11.3813 28.986 10.9149 29.5251 10.44 30.0643C10.1686 30.3723 9.94807 30.3809 9.59187 30.1327C8.73972 29.5185 8.01148 28.7459 7.44621 27.8563C7.17482 27.4455 6.91191 27.0005 6.67444 26.5897C6.59119 26.3627 6.5315 26.1275 6.49635 25.888Z" fill="#AD0000"/>
<path d="M23.7121 9.8932C23.7799 9.03741 23.8562 8.18161 23.9156 7.32582C23.9156 6.76955 23.746 6.54704 23.1947 6.47002C22.9233 6.47002 22.6519 6.47002 22.389 6.40156C22.1261 6.33309 21.9141 6.21328 21.9226 5.91376C21.9226 5.20345 21.9735 4.49314 22.0244 3.79138C22.0469 3.60447 22.1358 3.43213 22.2745 3.30626C22.4133 3.18038 22.5926 3.10951 22.7792 3.10675C24.4302 3.12756 26.0515 3.55345 27.503 4.34765C27.7101 4.51691 27.8537 4.75239 27.9101 5.01517C28.0732 5.6068 28.3607 6.15607 28.7528 6.62565C29.145 7.09523 29.6328 7.47413 30.183 7.7366C30.7635 8.02013 31.4043 8.15532 32.0488 8.13026C32.2477 8.11542 32.4471 8.15066 32.6292 8.23281C32.8113 8.31497 32.9703 8.44147 33.0919 8.60095C34.0915 9.68447 34.8441 10.9755 35.297 12.3836C35.297 12.4863 35.3563 12.5804 35.3818 12.6831C35.4751 13.1024 35.3818 13.2821 34.9917 13.4362C34.3471 13.6758 33.711 13.9069 33.0665 14.1294C32.6424 14.2749 32.4559 14.1722 32.2862 13.7614C32.1675 13.4961 32.0742 13.2137 31.9555 12.9484C31.7435 12.4863 31.5399 12.3921 31.1074 12.5718C30.2593 12.897 29.3603 13.2394 28.5122 13.6074C28.3248 13.7028 28.1135 13.7399 27.9052 13.714C27.6968 13.6881 27.5008 13.6003 27.3419 13.4619C26.3666 12.7002 25.3658 11.9642 24.382 11.2111C23.7121 10.8003 23.7121 10.6976 23.7121 9.8932Z" fill="#AD0000"/>
<path d="M18.0723 8.49825C18.0723 8.96038 18.0723 9.42251 18.0723 9.8932C18.0831 10.0548 18.0482 10.2163 17.9716 10.3587C17.895 10.5011 17.78 10.6186 17.6398 10.6976L14.0694 12.897C13.9191 12.991 13.7458 13.0408 13.569 13.0408C13.3922 13.0408 13.2189 12.991 13.0686 12.897L10.6855 11.6647C10.0409 11.3309 9.83739 11.3994 9.48967 12.0584L9.2098 12.6317C8.99778 13.0682 8.77727 13.1538 8.36171 12.9484C7.76805 12.6831 7.18287 12.4007 6.5892 12.0926C6.17364 11.8872 6.05491 11.6732 6.24997 11.2368C6.552 10.544 6.90938 9.87712 7.31856 9.24279C7.79345 8.60482 8.30905 7.99878 8.86208 7.42851C9.00009 7.27256 9.17563 7.15518 9.37174 7.08772C9.56785 7.02026 9.7779 7.00499 9.98156 7.0434C10.9097 7.1652 11.8511 6.96125 12.6479 6.46575C13.4447 5.97024 14.0484 5.21333 14.3577 4.32197C14.4002 4.1588 14.4809 4.00831 14.5931 3.88321C14.7053 3.7581 14.8456 3.66203 15.0023 3.6031C16.2528 3.13082 17.5767 2.88739 18.9119 2.88424C19.2441 2.89863 19.5753 2.93005 19.9042 2.97837C19.9674 2.98034 20.0296 2.9955 20.0867 3.02291C20.1439 3.05032 20.1948 3.08938 20.2362 3.13762C20.2776 3.18586 20.3087 3.24225 20.3275 3.30321C20.3462 3.36418 20.3523 3.42841 20.3452 3.49185C20.3452 4.25351 20.2943 5.00661 20.2519 5.76826C20.2523 5.83241 20.2393 5.89591 20.2136 5.95457C20.1879 6.01324 20.1501 6.06574 20.1028 6.1086C20.0555 6.15147 19.9998 6.18372 19.9392 6.20324C19.8787 6.22276 19.8147 6.2291 19.7516 6.22184H18.8187C18.2928 6.22184 18.0978 6.4529 18.0893 6.98349C18.0808 7.51409 18.0893 7.97621 18.0893 8.47258L18.0723 8.49825Z" fill="#AD0000"/>
<path d="M24.6455 18.4684C24.65 18.9878 24.552 19.5028 24.3571 19.9835C24.1622 20.4643 23.8744 20.901 23.5105 21.2683C23.1465 21.6355 22.7137 21.926 22.2373 22.1226C21.7609 22.3192 21.2505 22.4182 20.7358 22.4136C19.6966 22.4136 18.7 21.9971 17.9652 21.2556C17.2304 20.5141 16.8176 19.5084 16.8176 18.4598C16.8176 17.4112 17.2304 16.4056 17.9652 15.6641C18.7 14.9226 19.6966 14.5061 20.7358 14.5061C21.2516 14.5026 21.7629 14.6029 22.2399 14.801C22.7169 14.9991 23.15 15.2911 23.514 15.66C23.8779 16.0288 24.1654 16.4672 24.3597 16.9493C24.554 17.4315 24.6511 17.9479 24.6455 18.4684Z" fill="#AD0000"/>
<path d="M13.7563 3.20086C13.7608 4.03545 13.4377 4.83791 12.8577 5.43285C12.2776 6.02779 11.4878 6.36683 10.6608 6.37586C9.82813 6.38746 9.02438 6.06819 8.42301 5.48698C7.82165 4.90576 7.4709 4.10923 7.44649 3.26933C7.43863 2.84573 7.51396 2.42477 7.66815 2.0307C7.82233 1.63664 8.05231 1.27728 8.34482 0.973363C8.63733 0.669442 8.98659 0.426974 9.37243 0.259945C9.75827 0.0929168 10.1731 0.00463358 10.5929 0.000188744C11.0103 -0.00441636 11.4244 0.0752901 11.8108 0.234616C12.1972 0.393942 12.5482 0.629667 12.8429 0.927914C13.1377 1.22616 13.3704 1.5809 13.5272 1.97125C13.6841 2.36161 13.762 2.77968 13.7563 3.20086Z" fill="#AD0000"/>
<path d="M3.09549 26.8294C2.47345 26.8176 1.86876 26.6205 1.35746 26.2628C0.846159 25.9051 0.451072 25.4029 0.221879 24.8192C-0.00731313 24.2356 -0.0603782 23.5966 0.0693567 22.9826C0.199092 22.3686 0.505834 21.807 0.951013 21.3684C1.39619 20.9299 1.95993 20.6339 2.57134 20.5178C3.18276 20.4017 3.81455 20.4706 4.38726 20.7158C4.95998 20.961 5.44806 21.3717 5.79013 21.8961C6.1322 22.4204 6.31298 23.0352 6.30975 23.663C6.29857 24.5126 5.9539 25.3232 5.35135 25.9168C4.74879 26.5103 3.93753 26.8386 3.09549 26.8294Z" fill="#AD0000"/>
<path d="M34.4496 24.9295C34.453 24.2975 34.6423 23.6807 34.9934 23.1573C35.3446 22.6339 35.8418 22.2274 36.4221 21.9895C37.0024 21.7516 37.6396 21.6928 38.2531 21.8207C38.8665 21.9486 39.4285 22.2574 39.8678 22.7079C40.3071 23.1584 40.604 23.7304 40.7208 24.3514C40.8377 24.9724 40.7692 25.6144 40.524 26.196C40.2789 26.7777 39.8682 27.2728 39.3439 27.6186C38.8196 27.9645 38.2054 28.1455 37.5791 28.1387C37.1648 28.1354 36.7552 28.0497 36.3737 27.8866C35.9922 27.7235 35.6463 27.4862 35.3557 27.1882C35.0651 26.8902 34.8355 26.5373 34.68 26.1498C34.5246 25.7622 34.4463 25.3476 34.4496 24.9295Z" fill="#AD0000"/>
<path d="M16.9281 36.8678C16.9281 36.0235 17.2605 35.2137 17.8521 34.6167C18.4438 34.0196 19.2462 33.6842 20.083 33.6842C20.9197 33.6842 21.7222 34.0196 22.3138 34.6167C22.9055 35.2137 23.2379 36.0235 23.2379 36.8678C23.2379 37.7121 22.9055 38.5219 22.3138 39.1189C21.7222 39.7159 20.9197 40.0514 20.083 40.0514C19.2462 40.0514 18.4438 39.7159 17.8521 39.1189C17.2605 38.5219 16.9281 37.7121 16.9281 36.8678Z" fill="#AD0000"/>
<path d="M28.5973 4.19353C28.6392 3.38109 28.9885 2.61586 29.5732 2.05573C30.1578 1.4956 30.9333 1.18331 31.7395 1.18331C32.5457 1.18331 33.3212 1.4956 33.9058 2.05573C34.4905 2.61586 34.8398 3.38109 34.8817 4.19353C34.9038 4.62377 34.839 5.05406 34.6911 5.45821C34.5432 5.86235 34.3153 6.2319 34.0214 6.54434C33.7274 6.85678 33.3735 7.10559 32.9812 7.27561C32.5889 7.44563 32.1664 7.53331 31.7395 7.53331C31.3126 7.53331 30.8901 7.44563 30.4978 7.27561C30.1055 7.10559 29.7516 6.85678 29.4576 6.54434C29.1637 6.2319 28.9358 5.86235 28.7879 5.45821C28.64 5.05406 28.5752 4.62377 28.5973 4.19353Z" fill="#AD0000"/>
<path d="M55.6207 9.15239C57.0631 9.15239 57.944 8.62387 58.7478 7.78703L57.878 6.90615C57.2173 7.52276 56.6117 7.89714 55.6647 7.89714C54.1893 7.89714 53.1212 6.67491 53.1212 5.1664V5.14438C53.1212 3.63587 54.2003 2.43567 55.6537 2.43567C56.5456 2.43567 57.1953 2.81004 57.8229 3.38262L58.6928 2.38061C57.955 1.67591 57.0962 1.18041 55.6647 1.18041C53.3414 1.18041 51.7008 2.97521 51.7008 5.1664V5.18843C51.7008 7.40164 53.3634 9.15239 55.6207 9.15239ZM64.1953 9.15239C66.5626 9.15239 68.2363 7.33558 68.2363 5.1664V5.14438C68.2363 2.97521 66.5847 1.18041 64.2173 1.18041C61.8499 1.18041 60.1762 2.99723 60.1762 5.1664V5.18843C60.1762 7.3576 61.8279 9.15239 64.1953 9.15239ZM64.2173 7.89714C62.6868 7.89714 61.5967 6.6639 61.5967 5.1664V5.14438C61.5967 3.64688 62.6647 2.43567 64.1953 2.43567C65.7258 2.43567 66.8159 3.6689 66.8159 5.1664V5.18843C66.8159 6.68592 65.7478 7.89714 64.2173 7.89714ZM74.1009 9.15239C76.4683 9.15239 78.1419 7.33558 78.1419 5.1664V5.14438C78.1419 2.97521 76.4903 1.18041 74.1229 1.18041C71.7555 1.18041 70.0819 2.99723 70.0819 5.1664V5.18843C70.0819 7.3576 71.7335 9.15239 74.1009 9.15239ZM74.1229 7.89714C72.5924 7.89714 71.5023 6.6639 71.5023 5.1664V5.14438C71.5023 3.64688 72.5704 2.43567 74.1009 2.43567C75.6314 2.43567 76.7215 3.6689 76.7215 5.1664V5.18843C76.7215 6.68592 75.6534 7.89714 74.1229 7.89714ZM80.3288 9.02026H81.6832V6.54278H83.2137C84.9094 6.54278 86.2968 5.63988 86.2968 3.91115V3.88912C86.2968 2.33657 85.1737 1.31254 83.3679 1.31254H80.3288V9.02026ZM81.6832 5.32056V2.54578H83.2578C84.2708 2.54578 84.9204 3.01925 84.9204 3.92216V3.94418C84.9204 4.74798 84.2818 5.32056 83.2578 5.32056H81.6832ZM88.2344 9.02026H94.0042V7.80905H89.5888V5.74999H93.4536V4.52776H89.5888V2.52376H93.9491V1.31254H88.2344V9.02026ZM96.1615 9.02026H97.5158V6.33357H99.2115L101.105 9.02026H102.713L100.632 6.10234C101.7 5.79403 102.46 5.03427 102.46 3.768V3.74598C102.46 3.07431 102.229 2.50174 101.821 2.08332C101.326 1.59883 100.566 1.31254 99.5969 1.31254H96.1615V9.02026ZM97.5158 5.13337V2.54578H99.4868C100.489 2.54578 101.083 2.99723 101.083 3.82306V3.84508C101.083 4.62686 100.467 5.13337 99.4978 5.13337H97.5158ZM104.009 9.02026H105.396L106.189 7.1594H109.833L110.615 9.02026H112.047L108.655 1.25749H107.4L104.009 9.02026ZM106.684 5.9592L108.006 2.87611L109.338 5.9592H106.684ZM114.823 9.02026H116.178V2.5678H118.633V1.31254H112.368V2.5678H114.823V9.02026ZM120.665 9.02026H122.019V1.31254H120.665V9.02026ZM127.166 9.07532H128.377L131.57 1.31254H130.106L127.793 7.23648L125.47 1.31254H123.972L127.166 9.07532ZM133.442 9.02026H139.212V7.80905H134.796V5.74999H138.661V4.52776H134.796V2.52376H139.157V1.31254H133.442V9.02026ZM148.799 9.15239C150.242 9.15239 151.123 8.62387 151.926 7.78703L151.057 6.90615C150.396 7.52276 149.79 7.89714 148.843 7.89714C147.368 7.89714 146.3 6.67491 146.3 5.1664V5.14438C146.3 3.63587 147.379 2.43567 148.832 2.43567C149.724 2.43567 150.374 2.81004 151.002 3.38262L151.871 2.38061C151.134 1.67591 150.275 1.18041 148.843 1.18041C146.52 1.18041 144.879 2.97521 144.879 5.1664V5.18843C144.879 7.40164 146.542 9.15239 148.799 9.15239ZM157.374 9.15239C159.741 9.15239 161.415 7.33558 161.415 5.1664V5.14438C161.415 2.97521 159.763 1.18041 157.396 1.18041C155.029 1.18041 153.355 2.99723 153.355 5.1664V5.18843C153.355 7.3576 155.007 9.15239 157.374 9.15239ZM157.396 7.89714C155.865 7.89714 154.775 6.6639 154.775 5.1664V5.14438C154.775 3.64688 155.843 2.43567 157.374 2.43567C158.904 2.43567 159.995 3.6689 159.995 5.1664V5.18843C159.995 6.68592 158.926 7.89714 157.396 7.89714ZM163.602 9.02026H164.934V3.53677L169.184 9.02026H170.319V1.31254H168.986V6.64188L164.857 1.31254H163.602V9.02026ZM175.549 9.13037C177.168 9.13037 178.302 8.27151 178.302 6.82907V6.80705C178.302 5.52977 177.465 4.94618 175.836 4.54979C174.349 4.19743 173.997 3.93317 173.997 3.33857V3.31655C173.997 2.81004 174.459 2.40264 175.252 2.40264C175.957 2.40264 176.65 2.67791 177.344 3.19543L178.071 2.1714C177.289 1.54378 176.397 1.20243 175.274 1.20243C173.743 1.20243 172.642 2.11635 172.642 3.43767V3.45969C172.642 4.88012 173.567 5.3646 175.208 5.761C176.639 6.09133 176.948 6.38863 176.948 6.93918V6.9612C176.948 7.53377 176.419 7.93017 175.582 7.93017C174.635 7.93017 173.887 7.56681 173.149 6.92817L172.334 7.89714C173.259 8.72296 174.371 9.13037 175.549 9.13037ZM184.123 9.15239C186.49 9.15239 188.164 7.33558 188.164 5.1664V5.14438C188.164 2.97521 186.512 1.18041 184.145 1.18041C181.778 1.18041 180.104 2.99723 180.104 5.1664V5.18843C180.104 7.3576 181.756 9.15239 184.123 9.15239ZM184.145 7.89714C182.614 7.89714 181.524 6.6639 181.524 5.1664V5.14438C181.524 3.64688 182.592 2.43567 184.123 2.43567C185.654 2.43567 186.744 3.6689 186.744 5.1664V5.18843C186.744 6.68592 185.676 7.89714 184.145 7.89714ZM190.351 9.02026H191.705V6.33357H193.401L195.295 9.02026H196.902L194.821 6.10234C195.889 5.79403 196.649 5.03427 196.649 3.768V3.74598C196.649 3.07431 196.418 2.50174 196.011 2.08332C195.515 1.59883 194.755 1.31254 193.786 1.31254H190.351V9.02026ZM191.705 5.13337V2.54578H193.676C194.678 2.54578 195.273 2.99723 195.273 3.82306V3.84508C195.273 4.62686 194.656 5.13337 193.687 5.13337H191.705ZM200.731 9.02026H202.085V2.5678H204.541V1.31254H198.275V2.5678H200.731V9.02026ZM206.572 9.02026H207.927V1.31254H206.572V9.02026ZM213.701 9.14138C215.716 9.14138 217.015 7.98523 217.015 5.68392V1.31254H215.661V5.74999C215.661 7.17041 214.923 7.88613 213.723 7.88613C212.512 7.88613 211.774 7.12637 211.774 5.69493V1.31254H210.42V5.74999C210.42 7.98523 211.697 9.14138 213.701 9.14138ZM219.425 9.02026H220.757V3.51475L223.169 7.12637H223.213L225.646 3.49273V9.02026H227V1.31254H225.558L223.213 4.95719L220.867 1.31254H219.425V9.02026ZM52.0421 24.0353H53.3965V20.8972H57.2834V19.6639H53.3965V17.5608H57.7789V16.3276H52.0421V24.0353ZM63.4318 24.1674C65.7992 24.1674 67.4729 22.3506 67.4729 20.1814V20.1594C67.4729 17.9902 65.8212 16.1954 63.4538 16.1954C61.0865 16.1954 59.4128 18.0123 59.4128 20.1814V20.2035C59.4128 22.3726 61.0644 24.1674 63.4318 24.1674ZM63.4538 22.9122C61.9233 22.9122 60.8332 21.6789 60.8332 20.1814V20.1594C60.8332 18.6619 61.9013 17.4507 63.4318 17.4507C64.9623 17.4507 66.0524 18.6839 66.0524 20.1814V20.2035C66.0524 21.701 64.9844 22.9122 63.4538 22.9122ZM69.6598 24.0353H71.0141V21.3486H72.7098L74.6037 24.0353H76.2113L74.1302 21.1174C75.1983 20.8091 75.9581 20.0493 75.9581 18.783V18.761C75.9581 18.0893 75.7268 17.5168 75.3194 17.0984C74.8239 16.6139 74.0642 16.3276 73.0952 16.3276H69.6598V24.0353ZM71.0141 20.1484V17.5608H72.9851C73.9871 17.5608 74.5817 18.0123 74.5817 18.8381V18.8601C74.5817 19.6419 73.9651 20.1484 72.9961 20.1484H71.0141ZM83.9021 24.0353H85.2564V17.5828H87.7119V16.3276H81.4466V17.5828H83.9021V24.0353ZM89.6667 24.0353H91.0211V21.3486H92.7168L94.6106 24.0353H96.2183L94.1372 21.1174C95.2052 20.8091 95.965 20.0493 95.965 18.783V18.761C95.965 18.0893 95.7338 17.5168 95.3264 17.0984C94.8309 16.6139 94.0711 16.3276 93.1021 16.3276H89.6667V24.0353ZM91.0211 20.1484V17.5608H92.992C93.994 17.5608 94.5886 18.0123 94.5886 18.8381V18.8601C94.5886 19.6419 93.972 20.1484 93.003 20.1484H91.0211ZM97.5138 24.0353H98.9012L99.694 22.1744H103.339L104.12 24.0353H105.552L102.16 16.2725H100.905L97.5138 24.0353ZM100.189 20.9742L101.511 17.8911L102.843 20.9742H100.189ZM107.424 24.0353H108.756V18.5518L113.007 24.0353H114.141V16.3276H112.809V21.6569L108.679 16.3276H107.424V24.0353ZM119.372 24.1454C120.99 24.1454 122.124 23.2865 122.124 21.8441V21.8221C122.124 20.5448 121.287 19.9612 119.658 19.5648C118.171 19.2125 117.819 18.9482 117.819 18.3536V18.3316C117.819 17.8251 118.281 17.4177 119.074 17.4177C119.779 17.4177 120.473 17.6929 121.166 18.2105L121.893 17.1864C121.111 16.5588 120.219 16.2175 119.096 16.2175C117.566 16.2175 116.465 17.1314 116.465 18.4527V18.4747C116.465 19.8952 117.39 20.3796 119.03 20.776C120.462 21.1064 120.77 21.4037 120.77 21.9542V21.9762C120.77 22.5488 120.241 22.9452 119.405 22.9452C118.458 22.9452 117.709 22.5818 116.971 21.9432L116.156 22.9122C117.081 23.738 118.193 24.1454 119.372 24.1454ZM124.268 24.0353H127.141C129.564 24.0353 131.238 22.3506 131.238 20.1814V20.1594C131.238 17.9902 129.564 16.3276 127.141 16.3276H124.268V24.0353ZM127.141 17.5608C128.76 17.5608 129.817 18.6729 129.817 20.1814V20.2035C129.817 21.712 128.76 22.8021 127.141 22.8021H125.622V17.5608H127.141ZM133.508 24.0353H134.863V16.3276H133.508V24.0353ZM140.174 24.1454C141.793 24.1454 142.927 23.2865 142.927 21.8441V21.8221C142.927 20.5448 142.09 19.9612 140.46 19.5648C138.974 19.2125 138.622 18.9482 138.622 18.3536V18.3316C138.622 17.8251 139.084 17.4177 139.877 17.4177C140.582 17.4177 141.275 17.6929 141.969 18.2105L142.696 17.1864C141.914 16.5588 141.022 16.2175 139.899 16.2175C138.368 16.2175 137.267 17.1314 137.267 18.4527V18.4747C137.267 19.8952 138.192 20.3796 139.833 20.776C141.264 21.1064 141.573 21.4037 141.573 21.9542V21.9762C141.573 22.5488 141.044 22.9452 140.207 22.9452C139.26 22.9452 138.512 22.5818 137.774 21.9432L136.959 22.9122C137.884 23.738 138.996 24.1454 140.174 24.1454ZM148.649 24.1674C150.091 24.1674 150.972 23.6389 151.776 22.8021L150.906 21.9212C150.245 22.5378 149.64 22.9122 148.693 22.9122C147.217 22.9122 146.149 21.6899 146.149 20.1814V20.1594C146.149 18.6509 147.228 17.4507 148.682 17.4507C149.574 17.4507 150.223 17.8251 150.851 18.3977L151.721 17.3956C150.983 16.6909 150.124 16.1954 148.693 16.1954C146.37 16.1954 144.729 17.9902 144.729 20.1814V20.2035C144.729 22.4167 146.392 24.1674 148.649 24.1674ZM153.838 24.0353H155.192V16.3276H153.838V24.0353ZM157.806 24.0353H159.16V21.5578H160.691C162.387 21.5578 163.774 20.6549 163.774 18.9262V18.9042C163.774 17.3516 162.651 16.3276 160.845 16.3276H157.806V24.0353ZM159.16 20.3356V17.5608H160.735C161.748 17.5608 162.398 18.0343 162.398 18.9372V18.9592C162.398 19.763 161.759 20.3356 160.735 20.3356H159.16ZM165.712 24.0353H171.118V22.8021H167.066V16.3276H165.712V24.0353ZM173.146 24.0353H174.5V16.3276H173.146V24.0353ZM177.114 24.0353H178.446V18.5518L182.697 24.0353H183.831V16.3276H182.498V21.6569L178.369 16.3276H177.114V24.0353ZM185.703 24.0353H187.09L187.883 22.1744H191.528L192.31 24.0353H193.741L190.35 16.2725H189.094L185.703 24.0353ZM188.379 20.9742L189.7 17.8911L191.032 20.9742H188.379ZM195.613 24.0353H196.968V21.3486H198.663L200.557 24.0353H202.165L200.084 21.1174C201.152 20.8091 201.912 20.0493 201.912 18.783V18.761C201.912 18.0893 201.68 17.5168 201.273 17.0984C200.778 16.6139 200.018 16.3276 199.049 16.3276H195.613V24.0353ZM196.968 20.1484V17.5608H198.939C199.941 17.5608 200.535 18.0123 200.535 18.8381V18.8601C200.535 19.6419 199.919 20.1484 198.95 20.1484H196.968ZM206.11 24.0353H207.475V20.9632L210.536 16.3276H208.984L206.804 19.73L204.656 16.3276H203.049L206.11 20.9963V24.0353ZM54.7398 40.1614C56.3584 40.1614 57.4926 39.3026 57.4926 37.8601V37.8381C57.4926 36.5608 56.6557 35.9773 55.0261 35.5809C53.5396 35.2285 53.1873 34.9642 53.1873 34.3696V34.3476C53.1873 33.8411 53.6497 33.4337 54.4425 33.4337C55.1472 33.4337 55.8409 33.709 56.5346 34.2265L57.2613 33.2025C56.4796 32.5748 55.5877 32.2335 54.4645 32.2335C52.934 32.2335 51.8329 33.1474 51.8329 34.4687V34.4908C51.8329 35.9112 52.7578 36.3957 54.3985 36.7921C55.8299 37.1224 56.1382 37.4197 56.1382 37.9702V37.9923C56.1382 38.5648 55.6097 38.9612 54.7728 38.9612C53.8259 38.9612 53.0771 38.5979 52.3394 37.9592L51.5246 38.9282C52.4495 39.754 53.5616 40.1614 54.7398 40.1614ZM63.3135 40.1835C65.6809 40.1835 67.3546 38.3666 67.3546 36.1975V36.1755C67.3546 34.0063 65.7029 32.2115 63.3356 32.2115C60.9682 32.2115 59.2945 34.0283 59.2945 36.1975V36.2195C59.2945 38.3887 60.9462 40.1835 63.3135 40.1835ZM63.3356 38.9282C61.805 38.9282 60.7149 37.695 60.7149 36.1975V36.1755C60.7149 34.678 61.783 33.4667 63.3135 33.4667C64.8441 33.4667 65.9342 34.7 65.9342 36.1975V36.2195C65.9342 37.717 64.8661 38.9282 63.3356 38.9282ZM73.1201 40.1835C74.5625 40.1835 75.4434 39.6549 76.2472 38.8181L75.3773 37.9372C74.7167 38.5538 74.111 38.9282 73.1641 38.9282C71.6886 38.9282 70.6205 37.706 70.6205 36.1975V36.1755C70.6205 34.6669 71.6996 33.4667 73.1531 33.4667C74.045 33.4667 74.6946 33.8411 75.3223 34.4137L76.1921 33.4117C75.4544 32.707 74.5955 32.2115 73.1641 32.2115C70.8408 32.2115 69.2001 34.0063 69.2001 36.1975V36.2195C69.2001 38.4327 70.8628 40.1835 73.1201 40.1835ZM78.3091 40.0513H79.6634V32.3436H78.3091V40.0513ZM81.6166 40.0513H83.004L83.7968 38.1905H87.4414L88.2232 40.0513H89.6547L86.2633 32.2886H85.008L81.6166 40.0513ZM84.2923 36.9903L85.6136 33.9072L86.9459 36.9903H84.2923ZM91.527 40.0513H96.9334V38.8181H92.8813V32.3436H91.527V40.0513ZM104.443 40.1614C105.213 40.1614 105.863 39.9302 106.314 39.4788C106.766 39.0273 107.041 38.3446 107.041 37.4307V32.3436H105.643V37.3867C105.643 38.4217 105.147 38.9062 104.421 38.9062C103.771 38.9062 103.319 38.5759 102.868 37.9923L101.976 38.9172C102.483 39.6109 103.253 40.1614 104.443 40.1614ZM112.608 40.1725C114.623 40.1725 115.922 39.0163 115.922 36.715V32.3436H114.568V36.7811C114.568 38.2015 113.83 38.9172 112.63 38.9172C111.419 38.9172 110.681 38.1574 110.681 36.726V32.3436H109.327V36.7811C109.327 39.0163 110.604 40.1725 112.608 40.1725ZM121.03 40.1614C122.648 40.1614 123.782 39.3026 123.782 37.8601V37.8381C123.782 36.5608 122.946 35.9773 121.316 35.5809C119.829 35.2285 119.477 34.9642 119.477 34.3696V34.3476C119.477 33.8411 119.94 33.4337 120.732 33.4337C121.437 33.4337 122.131 33.709 122.824 34.2265L123.551 33.2025C122.769 32.5748 121.877 32.2335 120.754 32.2335C119.224 32.2335 118.123 33.1474 118.123 34.4687V34.4908C118.123 35.9112 119.048 36.3957 120.688 36.7921C122.12 37.1224 122.428 37.4197 122.428 37.9702V37.9923C122.428 38.5648 121.899 38.9612 121.063 38.9612C120.116 38.9612 119.367 38.5979 118.629 37.9592L117.814 38.9282C118.739 39.754 119.851 40.1614 121.03 40.1614ZM127.658 40.0513H129.012V33.5989H131.468V32.3436H125.203V33.5989H127.658V40.0513ZM133.5 40.0513H134.854V32.3436H133.5V40.0513ZM141.046 40.1835C142.489 40.1835 143.37 39.6549 144.174 38.8181L143.304 37.9372C142.643 38.5538 142.037 38.9282 141.091 38.9282C139.615 38.9282 138.547 37.706 138.547 36.1975V36.1755C138.547 34.6669 139.626 33.4667 141.079 33.4667C141.971 33.4667 142.621 33.8411 143.249 34.4137L144.119 33.4117C143.381 32.707 142.522 32.2115 141.091 32.2115C138.767 32.2115 137.127 34.0063 137.127 36.1975V36.2195C137.127 38.4327 138.789 40.1835 141.046 40.1835ZM146.158 40.0513H151.928V38.8401H147.513V36.7811H151.378V35.5588H147.513V33.5548H151.873V32.3436H146.158V40.0513ZM157.937 40.0513H159.292V37.3646H160.987L162.881 40.0513H164.489L162.408 37.1334C163.476 36.8251 164.236 36.0653 164.236 34.7991V34.7771C164.236 34.1054 164.004 33.5328 163.597 33.1144C163.101 32.6299 162.342 32.3436 161.373 32.3436H157.937V40.0513ZM159.292 36.1644V33.5769H161.263C162.265 33.5769 162.859 34.0283 162.859 34.8541V34.8762C162.859 35.6579 162.243 36.1644 161.274 36.1644H159.292ZM166.445 40.0513H172.215V38.8401H167.799V36.7811H171.664V35.5588H167.799V33.5548H172.16V32.3436H166.445V40.0513ZM177.07 40.1614C178.688 40.1614 179.822 39.3026 179.822 37.8601V37.8381C179.822 36.5608 178.986 35.9773 177.356 35.5809C175.87 35.2285 175.517 34.9642 175.517 34.3696V34.3476C175.517 33.8411 175.98 33.4337 176.772 33.4337C177.477 33.4337 178.171 33.709 178.865 34.2265L179.591 33.2025C178.809 32.5748 177.918 32.2335 176.794 32.2335C175.264 32.2335 174.163 33.1474 174.163 34.4687V34.4908C174.163 35.9112 175.088 36.3957 176.728 36.7921C178.16 37.1224 178.468 37.4197 178.468 37.9702V37.9923C178.468 38.5648 177.94 38.9612 177.103 38.9612C176.156 38.9612 175.407 38.5979 174.669 37.9592L173.855 38.9282C174.779 39.754 175.892 40.1614 177.07 40.1614ZM181.966 40.0513H187.736V38.8401H183.32V36.7811H187.185V35.5588H183.32V33.5548H187.68V32.3436H181.966V40.0513ZM189.232 40.0513H190.62L191.412 38.1905H195.057L195.839 40.0513H197.27L193.879 32.2886H192.624L189.232 40.0513ZM191.908 36.9903L193.229 33.9072L194.562 36.9903H191.908ZM199.143 40.0513H200.497V37.3646H202.193L204.086 40.0513H205.694L203.613 37.1334C204.681 36.8251 205.441 36.0653 205.441 34.7991V34.7771C205.441 34.1054 205.21 33.5328 204.802 33.1144C204.307 32.6299 203.547 32.3436 202.578 32.3436H199.143V40.0513ZM200.497 36.1644V33.5769H202.468C203.47 33.5769 204.064 34.0283 204.064 34.8541V34.8762C204.064 35.6579 203.448 36.1644 202.479 36.1644H200.497ZM211.229 40.1835C212.671 40.1835 213.552 39.6549 214.356 38.8181L213.486 37.9372C212.825 38.5538 212.22 38.9282 211.273 38.9282C209.797 38.9282 208.729 37.706 208.729 36.1975V36.1755C208.729 34.6669 209.808 33.4667 211.262 33.4667C212.154 33.4667 212.803 33.8411 213.431 34.4137L214.301 33.4117C213.563 32.707 212.704 32.2115 211.273 32.2115C208.95 32.2115 207.309 34.0063 207.309 36.1975V36.2195C207.309 38.4327 208.972 40.1835 211.229 40.1835ZM216.341 40.0513H217.695V36.8031H221.373V40.0513H222.727V32.3436H221.373V35.5478H217.695V32.3436H216.341V40.0513Z" fill="#AD0000"/>
</svg>
