<svg width="222" height="42" viewBox="0 0 222 42" fill="none" xmlns="http://www.w3.org/2000/svg">
<path d="M16.9693 35.1795H16.8166C15.2309 34.8524 13.7453 34.1483 12.4832 33.1257L12.2627 32.9204C12.2163 32.8873 12.177 32.8451 12.147 32.7963C12.1171 32.7475 12.0972 32.6932 12.0885 32.6365C12.0798 32.5798 12.0825 32.522 12.0964 32.4664C12.1103 32.4108 12.1351 32.3585 12.1694 32.3128C12.6274 31.6624 13.0938 31.0206 13.5772 30.3874C13.6113 30.3393 13.6549 30.2989 13.7053 30.2687C13.7557 30.2385 13.8118 30.2192 13.87 30.2119C13.9281 30.2047 13.9872 30.2097 14.0433 30.2267C14.0995 30.2436 14.1515 30.2721 14.1962 30.3104C14.4676 30.4815 14.722 30.6698 14.9934 30.8409C15.4852 31.149 15.7057 31.1062 16.028 30.6356C16.5538 29.874 17.071 29.1209 17.5714 28.3507C17.6725 28.1635 17.8264 28.0107 18.0136 27.9117C18.2007 27.8127 18.4128 27.7719 18.6229 27.7945C19.9006 27.863 21.1812 27.9229 22.4645 27.9742C22.6956 27.9671 22.9234 28.0302 23.1184 28.1553C23.3135 28.2804 23.4668 28.4618 23.5585 28.6759C23.9401 29.4546 24.4065 30.2077 24.7966 30.9693C25.1019 31.5084 25.3309 31.5769 25.8736 31.2859C26.0941 31.1747 26.3061 31.0292 26.5266 30.9179C26.5871 30.8706 26.6572 30.8374 26.732 30.8207C26.8067 30.804 26.8842 30.8042 26.9588 30.8214C27.0335 30.8386 27.1034 30.8723 27.1636 30.9201C27.2237 30.9679 27.2726 31.0285 27.3068 31.0977C27.6884 31.7052 28.053 32.3299 28.4092 32.946C28.4511 33.0046 28.4806 33.0713 28.4956 33.1419C28.5107 33.2126 28.5111 33.2856 28.4967 33.3564C28.4824 33.4272 28.4536 33.4942 28.4123 33.5532C28.3709 33.6122 28.3179 33.6618 28.2566 33.6991C27.9916 33.9106 27.7077 34.0969 27.4085 34.2553C26.2498 34.8659 25.0015 35.2849 23.7111 35.4961C23.5579 35.5147 23.4025 35.4991 23.2559 35.4503C23.1094 35.4015 22.9752 35.3207 22.8631 35.2137C22.155 34.5637 21.2468 34.1792 20.2911 34.1247C19.3353 34.0701 18.39 34.3489 17.6138 34.9142C17.4203 35.0332 17.2191 35.139 17.0117 35.2309L16.9693 35.1795Z" fill="white"/>
<path d="M36.6523 19.4853C36.5505 20.341 36.4657 21.0342 36.3894 21.7359C36.3745 21.9023 36.3196 22.0626 36.2295 22.2028C36.1393 22.3429 36.0167 22.4588 35.8721 22.5403C35.0315 23.0248 34.384 23.7891 34.0405 24.7024C33.6971 25.6157 33.679 26.6211 33.9895 27.5463C34.0501 27.7026 34.0725 27.8713 34.0548 28.0381C34.037 28.2049 33.9797 28.365 33.8877 28.5048C33.1072 29.8312 32.0405 30.9631 30.7669 31.8164L30.4532 31.9962C30.3507 32.0649 30.2255 32.0899 30.1047 32.0659C29.984 32.0418 29.8776 31.9706 29.8087 31.8678C29.3507 31.2403 28.9013 30.607 28.4603 29.9681C28.3924 29.8759 28.3632 29.7604 28.379 29.6467C28.3949 29.533 28.4546 29.4301 28.5451 29.3605C28.7826 29.1722 29.0285 28.9925 29.2575 28.7957C29.6645 28.4449 29.7069 28.2224 29.3931 27.7859C28.9352 27.1441 28.4433 26.528 27.9769 25.9033C27.8507 25.7455 27.7345 25.5797 27.6292 25.407C27.5453 25.2831 27.4922 25.1407 27.4745 24.9917C27.4568 24.8427 27.475 24.6916 27.5275 24.5513C28.0109 23.2249 28.5112 21.8985 28.9946 20.5721C29.0508 20.4188 29.1493 20.2849 29.2786 20.1863C29.4078 20.0878 29.5624 20.0286 29.7239 20.0159L32.3188 19.5195L32.675 19.434C32.7504 19.4239 32.8228 19.3981 32.8878 19.3584C32.9529 19.3187 33.009 19.2658 33.0528 19.2031C33.0966 19.1404 33.1271 19.0693 33.1424 18.9942C33.1576 18.919 33.1573 18.8415 33.1414 18.7665C33.1414 18.4071 33.0397 18.0477 32.9973 17.6883C32.9549 17.3289 32.9973 17.1577 33.4128 17.0636C34.1082 16.8753 34.812 16.7213 35.5159 16.5673C35.7788 16.5074 36.0417 16.5673 36.1011 16.8582C36.3131 17.7311 36.4911 18.6724 36.6523 19.4853Z" fill="white"/>
<path d="M6.49589 27.0074C6.55013 26.7697 6.61809 26.5354 6.69941 26.3057C7.02597 25.4643 7.06659 24.5373 6.8149 23.6701C6.56321 22.8028 6.03344 22.0444 5.30864 21.5136C5.11773 21.3866 4.96269 21.2119 4.85865 21.0064C4.75462 20.801 4.70513 20.5718 4.71502 20.3413C4.62565 18.9835 4.79551 17.621 5.21536 16.3279C5.35526 16.022 5.53184 15.7346 5.74114 15.4721C5.78285 15.4368 5.83236 15.4122 5.8855 15.4003C5.93864 15.3884 5.99383 15.3895 6.04643 15.4037C6.75878 15.6433 7.46264 15.9086 8.17499 16.1482C8.27362 16.1704 8.36115 16.2274 8.42179 16.309C8.48242 16.3906 8.51219 16.4914 8.50572 16.5931C8.48597 16.8454 8.4405 17.0948 8.37003 17.3376C8.09018 18.1934 8.18347 18.433 9.0739 18.6897C9.96433 18.9464 10.6936 19.1689 11.4993 19.3914C11.681 19.4308 11.8479 19.5218 11.9801 19.6537C12.1123 19.7856 12.2044 19.9529 12.2455 20.1359C12.5932 21.428 12.9409 22.7031 13.314 23.9953C13.3827 24.2007 13.3904 24.4219 13.3362 24.6317C13.282 24.8415 13.1682 25.0308 13.0088 25.1762C12.3982 25.8009 11.8215 26.4512 11.2449 27.093C10.7954 27.5893 10.8039 27.8204 11.2449 28.2996C11.4399 28.4879 11.6519 28.659 11.8385 28.8558C11.8913 28.8974 11.9341 28.9507 11.9635 29.0115C11.9929 29.0723 12.0082 29.139 12.0082 29.2067C12.0082 29.2743 11.9929 29.3411 11.9635 29.4019C11.9341 29.4627 11.8913 29.5159 11.8385 29.5575C11.3805 30.1052 10.9141 30.6443 10.4392 31.1834C10.1679 31.4915 9.94737 31.5 9.5912 31.2519C8.7391 30.6377 8.01092 29.8651 7.44568 28.9756C7.17431 28.5649 6.91142 28.1199 6.67397 27.7091C6.59072 27.4821 6.53104 27.2469 6.49589 27.0074Z" fill="white"/>
<path d="M23.7114 11.0134C23.7792 10.1577 23.8555 9.30195 23.9149 8.44622C23.9149 7.88999 23.7453 7.6675 23.1941 7.59048C22.9227 7.59048 22.6513 7.59048 22.3884 7.52202C22.1255 7.45356 21.9135 7.33376 21.922 7.03425C21.922 6.32399 21.9729 5.61374 22.0238 4.91203C22.0463 4.72513 22.1352 4.5528 22.274 4.42694C22.4127 4.30108 22.592 4.23021 22.7785 4.22745C24.4295 4.24826 26.0506 4.67411 27.5021 5.46826C27.7091 5.63751 27.8527 5.87297 27.9091 6.13573C28.0722 6.72732 28.3596 7.27655 28.7518 7.7461C29.144 8.21565 29.6317 8.59452 30.1818 8.85697C30.7624 9.14048 31.403 9.27566 32.0475 9.25061C32.2464 9.23576 32.4458 9.271 32.6279 9.35315C32.8099 9.43529 32.9689 9.56179 33.0906 9.72126C34.0901 10.8047 34.8426 12.0957 35.2955 13.5036C35.2955 13.6063 35.3548 13.7004 35.3803 13.8031C35.4735 14.2224 35.3803 14.4021 34.9902 14.5562C34.3457 14.7958 33.7096 15.0268 33.0651 15.2493C32.6411 15.3948 32.4546 15.2921 32.2849 14.8813C32.1662 14.6161 32.0729 14.3337 31.9542 14.0684C31.7422 13.6063 31.5387 13.5122 31.1062 13.6919C30.2582 14.017 29.3592 14.3593 28.5112 14.7273C28.3238 14.8227 28.1125 14.8598 27.9042 14.8339C27.6958 14.808 27.4998 14.7203 27.3409 14.5818C26.3657 13.8202 25.365 13.0843 24.3813 12.3313C23.7114 11.9205 23.7114 11.8178 23.7114 11.0134Z" fill="white"/>
<path d="M18.0711 9.61869C18.0711 10.0808 18.0711 10.5429 18.0711 11.0135C18.0818 11.1752 18.0469 11.3366 17.9703 11.479C17.8938 11.6214 17.7787 11.7389 17.6386 11.8179L14.0684 14.0172C13.9181 14.1111 13.7448 14.1609 13.568 14.1609C13.3912 14.1609 13.218 14.1111 13.0677 14.0172L10.6847 12.7849C10.0402 12.4512 9.83669 12.5196 9.489 13.1785L9.20915 13.7519C8.99714 14.1883 8.77665 14.2739 8.36112 14.0685C7.7675 13.8032 7.18236 13.5208 6.58874 13.2128C6.1732 13.0074 6.05448 12.7935 6.24953 12.357C6.55154 11.6643 6.90889 10.9975 7.31804 10.3632C7.7929 9.72525 8.30846 9.11925 8.86146 8.54902C8.99945 8.39309 9.17499 8.27572 9.37108 8.20826C9.56718 8.1408 9.77721 8.12554 9.98086 8.16394C10.9089 8.28573 11.8503 8.0818 12.647 7.58633C13.4437 7.09086 14.0474 6.334 14.3567 5.4427C14.3992 5.27954 14.4799 5.12907 14.5921 5.00397C14.7042 4.87887 14.8445 4.78281 15.0012 4.72389C16.2516 4.25164 17.5755 4.00822 18.9106 4.00507C19.2427 4.01947 19.5739 4.05089 19.9028 4.0992C19.966 4.10117 20.0282 4.11633 20.0853 4.14374C20.1424 4.17114 20.1933 4.2102 20.2348 4.25844C20.2762 4.30668 20.3073 4.36306 20.326 4.42402C20.3448 4.48498 20.3508 4.54921 20.3438 4.61264C20.3438 5.37425 20.2929 6.12729 20.2505 6.8889C20.2509 6.95303 20.2378 7.01653 20.2121 7.07519C20.1864 7.13385 20.1487 7.18635 20.1014 7.22921C20.0541 7.27207 19.9984 7.30433 19.9378 7.32384C19.8773 7.34336 19.8133 7.3497 19.7502 7.34243H18.8173C18.2916 7.34243 18.0965 7.57348 18.088 8.10404C18.0795 8.63459 18.088 9.09669 18.088 9.59302L18.0711 9.61869Z" fill="white"/>
<path d="M24.6437 19.5879C24.6483 20.1072 24.5502 20.6222 24.3554 21.1029C24.1605 21.5836 23.8727 22.0203 23.5088 22.3876C23.1449 22.7548 22.7121 23.0452 22.2357 23.2418C21.7594 23.4385 21.249 23.5374 20.7343 23.5328C19.6952 23.5328 18.6987 23.1163 17.964 22.3749C17.2292 21.6334 16.8164 20.6279 16.8164 19.5793C16.8164 18.5308 17.2292 17.5252 17.964 16.7838C18.6987 16.0424 19.6952 15.6258 20.7343 15.6258C21.2501 15.6224 21.7614 15.7227 22.2384 15.9208C22.7153 16.1189 23.1484 16.4109 23.5123 16.7797C23.8763 17.1485 24.1637 17.5868 24.358 18.0689C24.5522 18.5511 24.6494 19.0674 24.6437 19.5879Z" fill="white"/>
<path d="M13.7553 4.32167C13.7598 5.1562 13.4368 5.9586 12.8568 6.5535C12.2768 7.1484 11.487 7.48742 10.66 7.49645C9.82743 7.50804 9.02374 7.1888 8.42242 6.60763C7.8211 6.02646 7.47037 5.22998 7.44596 4.39013C7.4381 3.96657 7.51343 3.54563 7.66761 3.1516C7.82178 2.75756 8.05174 2.39823 8.34423 2.09433C8.63673 1.79043 8.98595 1.54798 9.37177 1.38097C9.75759 1.21395 10.1724 1.12567 10.5922 1.12123C11.0095 1.11662 11.4236 1.19632 11.81 1.35564C12.1964 1.51495 12.5473 1.75066 12.842 2.04889C13.1368 2.34711 13.3694 2.70183 13.5263 3.09215C13.6831 3.48248 13.761 3.90052 13.7553 4.32167Z" fill="white"/>
<path d="M3.09527 27.9486C2.47327 27.9368 1.86863 27.7396 1.35736 27.382C0.846099 27.0243 0.45104 26.5221 0.221864 25.9385C-0.00731262 25.3549 -0.060374 24.7159 0.0693518 24.102C0.199078 23.488 0.505799 22.9265 0.950946 22.488C1.39609 22.0494 1.95979 21.7535 2.57116 21.6374C3.18253 21.5213 3.81428 21.5902 4.38695 21.8354C4.95963 22.0806 5.44768 22.4912 5.78972 23.0155C6.13177 23.5399 6.31254 24.1546 6.3093 24.7824C6.29812 25.632 5.95348 26.4424 5.35097 27.036C4.74845 27.6295 3.93725 27.9577 3.09527 27.9486Z" fill="white"/>
<path d="M34.4472 26.0488C34.4506 25.4168 34.6399 24.8 34.991 24.2767C35.3421 23.7533 35.8393 23.3469 36.4196 23.109C36.9998 22.8711 37.637 22.8123 38.2504 22.9402C38.8637 23.0681 39.4257 23.3769 39.865 23.8274C40.3043 24.2778 40.6011 24.8498 40.7179 25.4707C40.8348 26.0916 40.7663 26.7336 40.5212 27.3152C40.2761 27.8968 39.8654 28.3919 39.3411 28.7377C38.8169 29.0836 38.2027 29.2646 37.5764 29.2578C37.1622 29.2544 36.7526 29.1688 36.3711 29.0057C35.9896 28.8426 35.6437 28.6053 35.3532 28.3073C35.0626 28.0093 34.833 27.6565 34.6776 27.269C34.5221 26.8815 34.4439 26.4668 34.4472 26.0488Z" fill="white"/>
<path d="M16.9269 37.9861C16.9269 37.1418 17.2593 36.3321 17.8509 35.7352C18.4425 35.1382 19.2449 34.8028 20.0816 34.8028C20.9182 34.8028 21.7206 35.1382 22.3122 35.7352C22.9039 36.3321 23.2362 37.1418 23.2362 37.9861C23.2362 38.8304 22.9039 39.6401 22.3122 40.2371C21.7206 40.8341 20.9182 41.1694 20.0816 41.1694C19.2449 41.1694 18.4425 40.8341 17.8509 40.2371C17.2593 39.6401 16.9269 38.8304 16.9269 37.9861Z" fill="white"/>
<path d="M28.5953 5.31427C28.6371 4.50189 28.9864 3.73671 29.5711 3.17662C30.1557 2.61653 30.9311 2.30427 31.7373 2.30427C32.5434 2.30427 33.3188 2.61653 33.9034 3.17662C34.4881 3.73671 34.8374 4.50189 34.8792 5.31427C34.9014 5.74448 34.8365 6.17475 34.6886 6.57886C34.5407 6.98298 34.3129 7.3525 34.0189 7.66492C33.725 7.97734 33.3711 8.22613 32.9789 8.39613C32.5866 8.56614 32.1642 8.65382 31.7373 8.65382C31.3103 8.65382 30.8879 8.56614 30.4956 8.39613C30.1034 8.22613 29.7495 7.97734 29.4556 7.66492C29.1616 7.3525 28.9338 6.98298 28.7859 6.57886C28.638 6.17475 28.5731 5.74448 28.5953 5.31427Z" fill="white"/>
<path d="M66.2116 7.24674C67.5228 7.24674 68.3236 6.76629 69.0543 6.00558L68.2635 5.20484C67.663 5.76536 67.1125 6.10568 66.2517 6.10568C64.9104 6.10568 63.9395 4.99464 63.9395 3.62337V3.60335C63.9395 2.23207 64.9204 1.14106 66.2417 1.14106C67.0524 1.14106 67.643 1.48137 68.2135 2.00186L69.0042 1.09101C68.3336 0.450414 67.5529 -5.01145e-06 66.2517 -5.01145e-06C64.1397 -5.01145e-06 62.6483 1.63151 62.6483 3.62337V3.64339C62.6483 5.65526 64.1597 7.24674 66.2116 7.24674ZM74.0061 7.24674C76.1582 7.24674 77.6796 5.5952 77.6796 3.62337V3.60335C77.6796 1.63151 76.1782 -5.01145e-06 74.0262 -5.01145e-06C71.8742 -5.01145e-06 70.3527 1.65153 70.3527 3.62337V3.64339C70.3527 5.61522 71.8541 7.24674 74.0061 7.24674ZM74.0262 6.10568C72.6349 6.10568 71.644 4.98463 71.644 3.62337V3.60335C71.644 2.24208 72.6149 1.14106 74.0061 1.14106C75.3974 1.14106 76.3884 2.2621 76.3884 3.62337V3.64339C76.3884 5.00465 75.4175 6.10568 74.0262 6.10568ZM83.0106 7.24674C85.1626 7.24674 86.684 5.5952 86.684 3.62337V3.60335C86.684 1.63151 85.1826 -5.01145e-06 83.0306 -5.01145e-06C80.8786 -5.01145e-06 79.3572 1.65153 79.3572 3.62337V3.64339C79.3572 5.61522 80.8586 7.24674 83.0106 7.24674ZM83.0306 6.10568C81.6393 6.10568 80.6484 4.98463 80.6484 3.62337V3.60335C80.6484 2.24208 81.6193 1.14106 83.0106 1.14106C84.4019 1.14106 85.3928 2.2621 85.3928 3.62337V3.64339C85.3928 5.00465 84.4219 6.10568 83.0306 6.10568ZM88.672 7.12663H89.9031V4.87453H91.2944C92.8359 4.87453 94.097 4.05377 94.097 2.48231V2.46229C94.097 1.05097 93.0761 0.120106 91.4346 0.120106H88.672V7.12663ZM89.9031 3.7635V1.24115H91.3345C92.2553 1.24115 92.8459 1.67155 92.8459 2.49231V2.51233C92.8459 3.24301 92.2653 3.7635 91.3345 3.7635H89.9031ZM95.8584 7.12663H101.103V6.0256H97.0895V4.15386H100.603V3.04283H97.0895V1.22113H101.053V0.120106H95.8584V7.12663ZM103.064 7.12663H104.295V4.68436H105.837L107.558 7.12663H109.02L107.128 4.47416C108.099 4.1939 108.79 3.50326 108.79 2.35218V2.33217C108.79 1.7216 108.579 1.20111 108.209 0.820759C107.759 0.380349 107.068 0.120106 106.187 0.120106H103.064V7.12663ZM104.295 3.59334V1.24115H106.087C106.998 1.24115 107.538 1.65153 107.538 2.40223V2.42225C107.538 3.13291 106.978 3.59334 106.097 3.59334H104.295ZM110.197 7.12663H111.459L112.179 5.43505H115.492L116.203 7.12663H117.504L114.421 0.0700599H113.28L110.197 7.12663ZM112.63 4.34404L113.831 1.54143L115.042 4.34404H112.63ZM120.028 7.12663H121.26V1.26117H123.492V0.120106H117.796V1.26117H120.028V7.12663ZM125.339 7.12663H126.57V0.120106H125.339V7.12663ZM131.248 7.17668H132.349L135.252 0.120106H133.92L131.818 5.50512L129.707 0.120106H128.345L131.248 7.17668ZM136.953 7.12663H142.198V6.0256H138.184V4.15386H141.698V3.04283H138.184V1.22113H142.148V0.120106H136.953V7.12663ZM150.914 7.24674C152.225 7.24674 153.025 6.76629 153.756 6.00558L152.965 5.20484C152.365 5.76536 151.814 6.10568 150.954 6.10568C149.612 6.10568 148.641 4.99464 148.641 3.62337V3.60335C148.641 2.23207 149.622 1.14106 150.944 1.14106C151.754 1.14106 152.345 1.48137 152.915 2.00186L153.706 1.09101C153.035 0.450414 152.255 -5.01145e-06 150.954 -5.01145e-06C148.842 -5.01145e-06 147.35 1.63151 147.35 3.62337V3.64339C147.35 5.65526 148.862 7.24674 150.914 7.24674ZM158.708 7.24674C160.86 7.24674 162.381 5.5952 162.381 3.62337V3.60335C162.381 1.63151 160.88 -5.01145e-06 158.728 -5.01145e-06C156.576 -5.01145e-06 155.055 1.65153 155.055 3.62337V3.64339C155.055 5.61522 156.556 7.24674 158.708 7.24674ZM158.728 6.10568C157.337 6.10568 156.346 4.98463 156.346 3.62337V3.60335C156.346 2.24208 157.317 1.14106 158.708 1.14106C160.099 1.14106 161.09 2.2621 161.09 3.62337V3.64339C161.09 5.00465 160.119 6.10568 158.728 6.10568ZM164.369 7.12663H165.581V2.14199L169.444 7.12663H170.475V0.120106H169.264V4.96462L165.51 0.120106H164.369V7.12663ZM175.23 7.22672C176.701 7.22672 177.732 6.44599 177.732 5.13477V5.11476C177.732 3.95368 176.972 3.42318 175.49 3.06285C174.139 2.74255 173.819 2.50232 173.819 1.96182V1.9418C173.819 1.48137 174.239 1.11103 174.96 1.11103C175.6 1.11103 176.231 1.36126 176.861 1.8317L177.522 0.900833C176.811 0.330302 176.001 0.0200134 174.98 0.0200134C173.588 0.0200134 172.587 0.850787 172.587 2.0519V2.07192C172.587 3.36313 173.428 3.80354 174.92 4.16387C176.221 4.46415 176.501 4.7344 176.501 5.23487V5.25489C176.501 5.77537 176.021 6.13571 175.26 6.13571C174.399 6.13571 173.718 5.8054 173.048 5.22486L172.307 6.10568C173.148 6.85638 174.159 7.22672 175.23 7.22672ZM183.024 7.24674C185.176 7.24674 186.697 5.5952 186.697 3.62337V3.60335C186.697 1.63151 185.196 -5.01145e-06 183.044 -5.01145e-06C180.892 -5.01145e-06 179.37 1.65153 179.37 3.62337V3.64339C179.37 5.61522 180.872 7.24674 183.024 7.24674ZM183.044 6.10568C181.652 6.10568 180.661 4.98463 180.661 3.62337V3.60335C180.661 2.24208 181.632 1.14106 183.024 1.14106C184.415 1.14106 185.406 2.2621 185.406 3.62337V3.64339C185.406 5.00465 184.435 6.10568 183.044 6.10568ZM188.685 7.12663H189.916V4.68436H191.458L193.179 7.12663H194.641L192.749 4.47416C193.72 4.1939 194.41 3.50326 194.41 2.35218V2.33217C194.41 1.7216 194.2 1.20111 193.83 0.820759C193.379 0.380349 192.689 0.120106 191.808 0.120106H188.685V7.12663ZM189.916 3.59334V1.24115H191.708C192.619 1.24115 193.159 1.65153 193.159 2.40223V2.42225C193.159 3.13291 192.599 3.59334 191.718 3.59334H189.916ZM198.121 7.12663H199.352V1.26117H201.584V0.120106H195.889V1.26117H198.121V7.12663ZM203.431 7.12663H204.662V0.120106H203.431V7.12663ZM209.911 7.23673C211.742 7.23673 212.923 6.18575 212.923 4.09381V0.120106H211.692V4.15386C211.692 5.44506 211.022 6.09567 209.931 6.09567C208.83 6.09567 208.159 5.40503 208.159 4.10381V0.120106H206.928V4.15386C206.928 6.18575 208.089 7.23673 209.911 7.23673ZM215.114 7.12663H216.325V2.12197L218.517 5.40503H218.557L220.769 2.10195V7.12663H222V0.120106H220.689L218.557 3.43319L216.425 0.120106H215.114V7.12663ZM62.9586 24.1425H64.1897V21.2898H67.723V20.1688H64.1897V18.257H68.1735V17.1359H62.9586V24.1425ZM73.3121 24.2626C75.4641 24.2626 76.9856 22.611 76.9856 20.6392V20.6192C76.9856 18.6474 75.4842 17.0158 73.3322 17.0158C71.1802 17.0158 69.6587 18.6674 69.6587 20.6392V20.6592C69.6587 22.6311 71.1601 24.2626 73.3121 24.2626ZM73.3322 23.1215C71.9409 23.1215 70.9499 22.0005 70.9499 20.6392V20.6192C70.9499 19.2579 71.9208 18.1569 73.3121 18.1569C74.7034 18.1569 75.6944 19.2779 75.6944 20.6392V20.6592C75.6944 22.0205 74.7235 23.1215 73.3322 23.1215ZM78.9735 24.1425H80.2047V21.7002H81.7461L83.4677 24.1425H84.9291L83.0373 21.49C84.0082 21.2097 84.6988 20.5191 84.6988 19.368V19.348C84.6988 18.7374 84.4886 18.217 84.1183 17.8366C83.6679 17.3962 82.9772 17.1359 82.0964 17.1359H78.9735V24.1425ZM80.2047 20.6092V18.257H81.9963C82.9072 18.257 83.4477 18.6674 83.4477 19.4181V19.4381C83.4477 20.1487 82.8872 20.6092 82.0063 20.6092H80.2047ZM91.9202 24.1425H93.1513V18.277H95.3834V17.1359H89.6881V18.277H91.9202V24.1425ZM97.1604 24.1425H98.3915V21.7002H99.9329L101.655 24.1425H103.116L101.224 21.49C102.195 21.2097 102.886 20.5191 102.886 19.368V19.348C102.886 18.7374 102.675 18.217 102.305 17.8366C101.855 17.3962 101.164 17.1359 100.283 17.1359H97.1604V24.1425ZM98.3915 20.6092V18.257H100.183C101.094 18.257 101.635 18.6674 101.635 19.4181V19.4381C101.635 20.1487 101.074 20.6092 100.193 20.6092H98.3915ZM104.294 24.1425H105.555L106.275 22.4509H109.588L110.299 24.1425H111.6L108.517 17.0859H107.376L104.294 24.1425ZM106.726 21.3599L107.927 18.5573L109.138 21.3599H106.726ZM113.302 24.1425H114.513V19.1578L118.377 24.1425H119.408V17.1359H118.197V21.9805L114.443 17.1359H113.302V24.1425ZM124.163 24.2426C125.634 24.2426 126.665 23.4618 126.665 22.1506V22.1306C126.665 20.9695 125.904 20.439 124.423 20.0787C123.072 19.7584 122.752 19.5182 122.752 18.9777V18.9576C122.752 18.4972 123.172 18.1269 123.893 18.1269C124.533 18.1269 125.164 18.3771 125.794 18.8475L126.455 17.9167C125.744 17.3461 124.934 17.0359 123.913 17.0359C122.521 17.0359 121.52 17.8666 121.52 19.0677V19.0878C121.52 20.379 122.361 20.8194 123.853 21.1797C125.154 21.48 125.434 21.7502 125.434 22.2507V22.2707C125.434 22.7912 124.954 23.1515 124.193 23.1515C123.332 23.1515 122.651 22.8212 121.981 22.2407L121.24 23.1215C122.081 23.8722 123.092 24.2426 124.163 24.2426ZM128.613 24.1425H131.226C133.428 24.1425 134.949 22.611 134.949 20.6392V20.6192C134.949 18.6474 133.428 17.1359 131.226 17.1359H128.613V24.1425ZM131.226 18.257C132.697 18.257 133.658 19.2679 133.658 20.6392V20.6592C133.658 22.0305 132.697 23.0214 131.226 23.0214H129.845V18.257H131.226ZM137.014 24.1425H138.245V17.1359H137.014V24.1425ZM143.073 24.2426C144.544 24.2426 145.575 23.4618 145.575 22.1506V22.1306C145.575 20.9695 144.815 20.439 143.333 20.0787C141.982 19.7584 141.662 19.5182 141.662 18.9777V18.9576C141.662 18.4972 142.082 18.1269 142.803 18.1269C143.443 18.1269 144.074 18.3771 144.705 18.8475L145.365 17.9167C144.654 17.3461 143.844 17.0359 142.823 17.0359C141.431 17.0359 140.431 17.8666 140.431 19.0677V19.0878C140.431 20.379 141.271 20.8194 142.763 21.1797C144.064 21.48 144.344 21.7502 144.344 22.2507V22.2707C144.344 22.7912 143.864 23.1515 143.103 23.1515C142.242 23.1515 141.562 22.8212 140.891 22.2407L140.15 23.1215C140.991 23.8722 142.002 24.2426 143.073 24.2426ZM150.777 24.2626C152.088 24.2626 152.889 23.7821 153.619 23.0214L152.829 22.2207C152.228 22.7812 151.678 23.1215 150.817 23.1215C149.475 23.1215 148.505 22.0105 148.505 20.6392V20.6192C148.505 19.2479 149.485 18.1569 150.807 18.1569C151.617 18.1569 152.208 18.4972 152.779 19.0177L153.569 18.1068C152.899 17.4663 152.118 17.0158 150.817 17.0158C148.705 17.0158 147.213 18.6474 147.213 20.6392V20.6592C147.213 22.6711 148.725 24.2626 150.777 24.2626ZM155.494 24.1425H156.725V17.1359H155.494V24.1425ZM159.101 24.1425H160.332V21.8904H161.723C163.265 21.8904 164.526 21.0696 164.526 19.4981V19.4781C164.526 18.0668 163.505 17.1359 161.863 17.1359H159.101V24.1425ZM160.332 20.7793V18.257H161.763C162.684 18.257 163.275 18.6874 163.275 19.5082V19.5282C163.275 20.2589 162.694 20.7793 161.763 20.7793H160.332ZM166.287 24.1425H171.202V23.0214H167.518V17.1359H166.287V24.1425ZM173.045 24.1425H174.276V17.1359H173.045V24.1425ZM176.652 24.1425H177.863V19.1578L181.727 24.1425H182.758V17.1359H181.547V21.9805L177.793 17.1359H176.652V24.1425ZM184.46 24.1425H185.721L186.442 22.4509H189.755L190.466 24.1425H191.767L188.684 17.0859H187.543L184.46 24.1425ZM186.892 21.3599L188.093 18.5573L189.304 21.3599H186.892ZM193.469 24.1425H194.7V21.7002H196.241L197.963 24.1425H199.424L197.533 21.49C198.503 21.2097 199.194 20.5191 199.194 19.368V19.348C199.194 18.7374 198.984 18.217 198.614 17.8366C198.163 17.3962 197.472 17.1359 196.592 17.1359H193.469V24.1425ZM194.7 20.6092V18.257H196.492C197.402 18.257 197.943 18.6674 197.943 19.4181V19.4381C197.943 20.1487 197.382 20.6092 196.502 20.6092H194.7ZM203.01 24.1425H204.251V21.3499L207.034 17.1359H205.623L203.641 20.2288L201.689 17.1359H200.228L203.01 21.3799V24.1425ZM65.4109 41.2584C66.8823 41.2584 67.9132 40.4777 67.9132 39.1665V39.1464C67.9132 37.9854 67.1525 37.4549 65.6711 37.0945C64.3199 36.7742 63.9996 36.534 63.9996 35.9935V35.9735C63.9996 35.5131 64.42 35.1427 65.1406 35.1427C65.7812 35.1427 66.4118 35.3929 67.0424 35.8634L67.703 34.9325C66.9924 34.362 66.1816 34.0517 65.1607 34.0517C63.7694 34.0517 62.7684 34.8825 62.7684 36.0836V36.1036C62.7684 37.3948 63.6092 37.8352 65.1006 38.1955C66.4018 38.4958 66.6821 38.7661 66.6821 39.2665V39.2866C66.6821 39.807 66.2016 40.1674 65.4409 40.1674C64.5801 40.1674 63.8995 39.8371 63.2289 39.2565L62.4882 40.1374C63.3289 40.8881 64.3399 41.2584 65.4109 41.2584ZM73.2046 41.2784C75.3566 41.2784 76.878 39.6269 76.878 37.655V37.635C76.878 35.6632 75.3766 34.0317 73.2246 34.0317C71.0726 34.0317 69.5512 35.6832 69.5512 37.655V37.6751C69.5512 39.6469 71.0526 41.2784 73.2046 41.2784ZM73.2246 40.1374C71.8333 40.1374 70.8424 39.0163 70.8424 37.655V37.635C70.8424 36.2738 71.8133 35.1727 73.2046 35.1727C74.5959 35.1727 75.5868 36.2938 75.5868 37.655V37.6751C75.5868 39.0363 74.6159 40.1374 73.2246 40.1374ZM82.119 41.2784C83.4302 41.2784 84.231 40.798 84.9617 40.0373L84.1709 39.2365C83.5704 39.797 83.0199 40.1374 82.1591 40.1374C80.8178 40.1374 79.8469 39.0263 79.8469 37.655V37.635C79.8469 36.2637 80.8278 35.1727 82.149 35.1727C82.9598 35.1727 83.5503 35.5131 84.1209 36.0335L84.9116 35.1227C84.241 34.4821 83.4603 34.0317 82.1591 34.0317C80.0471 34.0317 78.5557 35.6632 78.5557 37.655V37.6751C78.5557 39.6869 80.0671 41.2784 82.119 41.2784ZM86.836 41.1583H88.0671V34.1518H86.836V41.1583ZM89.8426 41.1583H91.1038L91.8245 39.4667H95.1375L95.8482 41.1583H97.1494L94.0665 34.1017H92.9255L89.8426 41.1583ZM92.2749 38.3757L93.476 35.5731L94.6871 38.3757H92.2749ZM98.8514 41.1583H103.766V40.0373H100.083V34.1518H98.8514V41.1583ZM110.592 41.2584C111.293 41.2584 111.883 41.0482 112.294 40.6378C112.704 40.2274 112.954 39.6069 112.954 38.7761V34.1518H111.683V38.736C111.683 39.6769 111.233 40.1173 110.572 40.1173C109.981 40.1173 109.571 39.8171 109.161 39.2866L108.35 40.1273C108.81 40.7579 109.511 41.2584 110.592 41.2584ZM118.015 41.2684C119.846 41.2684 121.027 40.2174 121.027 38.1255V34.1518H119.796V38.1855C119.796 39.4767 119.126 40.1273 118.035 40.1273C116.934 40.1273 116.263 39.4367 116.263 38.1355V34.1518H115.032V38.1855C115.032 40.2174 116.193 41.2684 118.015 41.2684ZM125.67 41.2584C127.141 41.2584 128.172 40.4777 128.172 39.1665V39.1464C128.172 37.9854 127.412 37.4549 125.93 37.0945C124.579 36.7742 124.259 36.534 124.259 35.9935V35.9735C124.259 35.5131 124.679 35.1427 125.4 35.1427C126.04 35.1427 126.671 35.3929 127.302 35.8634L127.962 34.9325C127.252 34.362 126.441 34.0517 125.42 34.0517C124.029 34.0517 123.028 34.8825 123.028 36.0836V36.1036C123.028 37.3948 123.868 37.8352 125.36 38.1955C126.661 38.4958 126.941 38.7661 126.941 39.2665V39.2866C126.941 39.807 126.461 40.1674 125.7 40.1674C124.839 40.1674 124.159 39.8371 123.488 39.2565L122.747 40.1374C123.588 40.8881 124.599 41.2584 125.67 41.2584ZM131.695 41.1583H132.927V35.2928H135.159V34.1518H129.463V35.2928H131.695V41.1583ZM137.006 41.1583H138.237V34.1518H137.006V41.1583ZM143.866 41.2784C145.177 41.2784 145.978 40.798 146.709 40.0373L145.918 39.2365C145.317 39.797 144.767 40.1374 143.906 40.1374C142.565 40.1374 141.594 39.0263 141.594 37.655V37.635C141.594 36.2637 142.575 35.1727 143.896 35.1727C144.707 35.1727 145.297 35.5131 145.868 36.0335L146.659 35.1227C145.988 34.4821 145.207 34.0317 143.906 34.0317C141.794 34.0317 140.303 35.6632 140.303 37.655V37.6751C140.303 39.6869 141.814 41.2784 143.866 41.2784ZM148.513 41.1583H153.758V40.0573H149.744V38.1855H153.257V37.0745H149.744V35.2528H153.708V34.1518H148.513V41.1583ZM159.22 41.1583H160.451V38.716H161.993L163.714 41.1583H165.176L163.284 38.5058C164.255 38.2256 164.945 37.5349 164.945 36.3839V36.3638C164.945 35.7533 164.735 35.2328 164.365 34.8524C163.914 34.412 163.224 34.1518 162.343 34.1518H159.22V41.1583ZM160.451 37.625V35.2728H162.243C163.154 35.2728 163.694 35.6832 163.694 36.4339V36.4539C163.694 37.1646 163.134 37.625 162.253 37.625H160.451ZM166.954 41.1583H172.199V40.0573H168.185V38.1855H171.698V37.0745H168.185V35.2528H172.149V34.1518H166.954V41.1583ZM176.612 41.2584C178.083 41.2584 179.114 40.4777 179.114 39.1665V39.1464C179.114 37.9854 178.354 37.4549 176.872 37.0945C175.521 36.7742 175.201 36.534 175.201 35.9935V35.9735C175.201 35.5131 175.621 35.1427 176.342 35.1427C176.982 35.1427 177.613 35.3929 178.244 35.8634L178.904 34.9325C178.194 34.362 177.383 34.0517 176.362 34.0517C174.971 34.0517 173.97 34.8825 173.97 36.0836V36.1036C173.97 37.3948 174.81 37.8352 176.302 38.1955C177.603 38.4958 177.883 38.7661 177.883 39.2665V39.2866C177.883 39.807 177.403 40.1674 176.642 40.1674C175.781 40.1674 175.101 39.8371 174.43 39.2565L173.689 40.1374C174.53 40.8881 175.541 41.2584 176.612 41.2584ZM181.063 41.1583H186.308V40.0573H182.294V38.1855H185.807V37.0745H182.294V35.2528H186.258V34.1518H181.063V41.1583ZM187.668 41.1583H188.929L189.65 39.4667H192.963L193.674 41.1583H194.975L191.892 34.1017H190.751L187.668 41.1583ZM190.1 38.3757L191.301 35.5731L192.513 38.3757H190.1ZM196.677 41.1583H197.908V38.716H199.449L201.171 41.1583H202.632L200.741 38.5058C201.712 38.2256 202.402 37.5349 202.402 36.3839V36.3638C202.402 35.7533 202.192 35.2328 201.822 34.8524C201.371 34.412 200.681 34.1518 199.8 34.1518H196.677V41.1583ZM197.908 37.625V35.2728H199.7C200.61 35.2728 201.151 35.6832 201.151 36.4339V36.4539C201.151 37.1646 200.59 37.625 199.71 37.625H197.908ZM207.664 41.2784C208.975 41.2784 209.776 40.798 210.506 40.0373L209.716 39.2365C209.115 39.797 208.564 40.1374 207.704 40.1374C206.362 40.1374 205.391 39.0263 205.391 37.655V37.635C205.391 36.2637 206.372 35.1727 207.694 35.1727C208.504 35.1727 209.095 35.5131 209.665 36.0335L210.456 35.1227C209.786 34.4821 209.005 34.0317 207.704 34.0317C205.592 34.0317 204.1 35.6632 204.1 37.655V37.6751C204.1 39.6869 205.612 41.2784 207.664 41.2784ZM212.311 41.1583H213.542V38.2056H216.885V41.1583H218.116V34.1518H216.885V37.0645H213.542V34.1518H212.311V41.1583Z" fill="white"/>
</svg>
