<svg xmlns="http://www.w3.org/2000/svg" width="49" height="49" fill="none" viewBox="0 0 49 49">
    <path fill="#AD0000" d="M20.392 40.932h-.183A12.183 12.183 0 0 1 15 38.464l-.265-.247a.513.513 0 0 1-.2-.546.517.517 0 0 1 .088-.184c.55-.782 1.11-1.553 1.692-2.314a.512.512 0 0 1 .56-.193c.067.02.13.054.184.1.326.206.632.432.958.638.59.37.856.319 1.243-.247.632-.915 1.254-1.82 1.855-2.746a1.274 1.274 0 0 1 1.264-.668c1.535.082 3.074.154 4.617.216.277-.009.551.067.785.217.235.15.42.369.53.626.458.936 1.018 1.84 1.487 2.756.367.648.642.73 1.295.38.265-.133.52-.308.784-.442a.619.619 0 0 1 .938.216c.459.73.897 1.481 1.325 2.222a.63.63 0 0 1-.183.905c-.319.254-.66.478-1.02.668a14.584 14.584 0 0 1-4.443 1.492 1.252 1.252 0 0 1-1.02-.34 4.982 4.982 0 0 0-6.309-.36c-.232.143-.473.27-.723.38l-.05-.061zM44.048 22.07c-.122 1.029-.224 1.862-.316 2.705a1.24 1.24 0 0 1-.621.967 5.047 5.047 0 0 0-2.202 2.599 5.103 5.103 0 0 0-.061 3.417 1.266 1.266 0 0 1-.122 1.152 12.295 12.295 0 0 1-3.75 3.98l-.378.216a.556.556 0 0 1-.775-.154c-.55-.754-1.09-1.515-1.62-2.283a.528.528 0 0 1 .102-.73c.285-.227.58-.443.856-.68.49-.42.54-.688.163-1.213-.55-.77-1.141-1.511-1.702-2.262a5.72 5.72 0 0 1-.418-.597 1.127 1.127 0 0 1-.122-1.028c.58-1.594 1.182-3.188 1.763-4.782a1.027 1.027 0 0 1 .877-.669l3.118-.596.428-.103a.66.66 0 0 0 .562-.529.676.676 0 0 0-.001-.273c0-.432-.123-.864-.173-1.296-.051-.432 0-.638.499-.75.836-.227 1.682-.412 2.527-.597.316-.072.632 0 .704.35.255 1.048.468 2.18.662 3.157zM7.807 31.11c.065-.285.147-.567.245-.843A4.948 4.948 0 0 0 8.19 27.1a4.906 4.906 0 0 0-1.81-2.591 1.6 1.6 0 0 1-.714-1.41c-.108-1.63.097-3.268.601-4.822.168-.368.38-.713.632-1.029a.406.406 0 0 1 .367-.082c.856.288 1.702.607 2.558.895a.51.51 0 0 1 .398.534 4.464 4.464 0 0 1-.164.895c-.336 1.028-.224 1.316.846 1.625 1.07.308 1.947.576 2.915.843a1.185 1.185 0 0 1 .897.895c.418 1.553.836 3.085 1.284 4.638a1.348 1.348 0 0 1-.367 1.42c-.733.75-1.427 1.532-2.12 2.303-.54.597-.53.874 0 1.45.235.227.49.432.714.669a.534.534 0 0 1 .15.656.534.534 0 0 1-.15.187c-.55.658-1.111 1.306-1.682 1.954-.326.37-.59.38-1.019.082a9.947 9.947 0 0 1-2.578-2.735 30.466 30.466 0 0 1-.928-1.522 4.238 4.238 0 0 1-.214-.844zM28.496 11.889c.081-1.028.173-2.057.244-3.085 0-.669-.204-.936-.866-1.029-.326 0-.652 0-.968-.082-.316-.082-.571-.226-.56-.586 0-.854.06-1.707.121-2.55a.939.939 0 0 1 .301-.584.923.923 0 0 1 .607-.24c1.984.026 3.932.537 5.676 1.492.25.203.422.486.49.802a5.157 5.157 0 0 0 1.012 1.935 5.102 5.102 0 0 0 1.719 1.335c.698.341 1.468.504 2.242.473a1.436 1.436 0 0 1 1.254.566 12.22 12.22 0 0 1 2.65 4.546c0 .123.07.236.101.36.113.504 0 .72-.468.905-.775.288-1.54.565-2.314.833-.51.175-.734.051-.938-.442-.142-.32-.254-.659-.397-.978-.255-.555-.5-.668-1.02-.452-1.018.39-2.099.802-3.118 1.244a1.263 1.263 0 0 1-1.406-.174c-1.172-.916-2.375-1.8-3.557-2.705-.805-.494-.805-.617-.805-1.584zM21.718 10.213v1.676a1.036 1.036 0 0 1-.52.967l-4.29 2.643a1.133 1.133 0 0 1-1.203 0l-2.864-1.481c-.774-.401-1.019-.319-1.437.473l-.336.689c-.255.524-.52.627-1.02.38a40.29 40.29 0 0 1-2.13-1.028c-.499-.247-.641-.504-.407-1.028.363-.833.793-1.634 1.284-2.397a22 22 0 0 1 1.855-2.18 1.446 1.446 0 0 1 1.345-.463A4.866 4.866 0 0 0 15.2 7.77a4.938 4.938 0 0 0 2.054-2.576 1.27 1.27 0 0 1 .775-.864 13.386 13.386 0 0 1 4.698-.864c.4.017.797.055 1.193.113a.547.547 0 0 1 .508.39.56.56 0 0 1 .022.227c0 .916-.061 1.82-.112 2.736a.549.549 0 0 1-.376.523.535.535 0 0 1-.226.022h-1.12c-.633 0-.867.278-.877.915-.01.638 0 1.193 0 1.79l-.02.03zM29.617 22.194a4.738 4.738 0 0 1-1.364 3.365c-.437.44-.957.79-1.53 1.026a4.621 4.621 0 0 1-1.804.35c-1.249 0-2.446-.5-3.33-1.392a4.773 4.773 0 0 1-1.379-3.36c0-1.26.496-2.468 1.38-3.36a4.687 4.687 0 0 1 3.329-1.39 4.632 4.632 0 0 1 3.339 1.386 4.748 4.748 0 0 1 1.36 3.375z"/>
    <path fill="#AD0000" d="M16.53 3.847a3.813 3.813 0 0 1-1.08 2.682 3.744 3.744 0 0 1-2.64 1.133c-1 .014-1.967-.37-2.69-1.068a3.862 3.862 0 0 1-1.173-2.665 3.888 3.888 0 0 1 1.08-2.76A3.82 3.82 0 0 1 12.728 0a3.731 3.731 0 0 1 2.704 1.115 3.798 3.798 0 0 1 1.098 2.732zM3.72 32.242a3.768 3.768 0 0 1-2.089-.681 3.82 3.82 0 0 1-1.364-1.735 3.858 3.858 0 0 1 .876-4.147 3.76 3.76 0 0 1 4.13-.784 3.8 3.8 0 0 1 1.685 1.418 3.85 3.85 0 0 1 .625 2.123 3.874 3.874 0 0 1-1.152 2.709 3.804 3.804 0 0 1-2.711 1.097zM41.397 29.959c.004-.76.232-1.501.654-2.13a3.809 3.809 0 0 1 1.716-1.403 3.77 3.77 0 0 1 2.2-.203 3.791 3.791 0 0 1 1.941 1.066 3.868 3.868 0 0 1 .789 4.192 3.828 3.828 0 0 1-1.418 1.71 3.777 3.777 0 0 1-3.57.321 3.79 3.79 0 0 1-1.223-.839 3.83 3.83 0 0 1-1.089-2.714zM20.343 44.305c0-1.015.399-1.988 1.11-2.705a3.774 3.774 0 0 1 2.68-1.12c1.006 0 1.97.402 2.682 1.12a3.843 3.843 0 0 1 1.11 2.705c0 1.015-.4 1.988-1.11 2.705a3.774 3.774 0 0 1-2.681 1.12 3.774 3.774 0 0 1-2.681-1.12 3.843 3.843 0 0 1-1.11-2.705zM34.366 5.04a3.83 3.83 0 0 1 1.173-2.57 3.763 3.763 0 0 1 2.603-1.048c.969 0 1.9.375 2.603 1.049a3.83 3.83 0 0 1 1.173 2.569 3.848 3.848 0 0 1-1.034 2.825 3.752 3.752 0 0 1-5.484 0 3.847 3.847 0 0 1-1.034-2.825z"/>
</svg>
