<svg width="15" height="12" viewBox="0 0 15 12" fill="none" xmlns="http://www.w3.org/2000/svg">
<path d="M14.7633 1.4218C14.2214 1.66267 13.6392 1.82325 13.0237 1.89685C13.6526 1.52216 14.131 0.930025 14.3585 0.220797C13.763 0.575411 13.1107 0.822972 12.4316 0.956788C11.8796 0.367996 11.0934 0 10.2236 0C8.55088 0 7.19264 1.35489 7.19264 3.03094C7.19264 3.26512 7.2194 3.4993 7.27293 3.7201C4.75383 3.59297 2.52244 2.38863 1.02704 0.555339C0.7661 1.00362 0.618901 1.52216 0.618901 2.0775C0.618901 3.12796 1.15417 4.05799 1.9671 4.59994C1.48536 4.58322 1.01366 4.45609 0.592138 4.22191V4.25871C0.592138 5.72735 1.63591 6.95177 3.02425 7.22944C2.76666 7.29969 2.50237 7.33649 2.2247 7.33649C2.03067 7.33649 1.83998 7.31642 1.65598 7.28297C2.0407 8.48397 3.15807 9.36047 4.4862 9.38389C3.44578 10.1968 2.14106 10.6819 0.722609 10.6819C0.478394 10.6819 0.237524 10.6685 0 10.6384C1.34151 11.4982 2.93393 12 4.64343 12C10.2135 12 13.2612 7.38333 13.2612 3.38221C13.2612 3.25174 13.2579 3.12127 13.2512 2.9908C13.8467 2.56259 14.3585 2.03067 14.7633 1.4218Z" fill="#202020"/>
</svg>
