<svg width="15" height="15" viewBox="0 0 15 15" fill="none" xmlns="http://www.w3.org/2000/svg">
<path d="M13.6169 10.7834C13.6169 12.3683 12.3304 13.6547 10.7455 13.6547H4.25448C2.66956 13.6547 1.37892 12.3683 1.37892 10.7834L1.37892 4.29232C1.37892 2.70319 2.66956 1.41676 4.25448 1.41676L10.7455 1.41676C12.3304 1.41676 13.6169 2.70319 13.6169 4.29232V10.7834ZM10.6698 0L4.33016 0C1.93806 0 0 1.93806 0 4.33016L0 10.6698C0 13.0619 1.93806 15 4.33016 15H10.6698C13.0619 15 15 13.0619 15 10.6698V4.33016C15 1.93806 13.0619 0 10.6698 0Z" fill="#202020"/>
<path d="M7.49935 10.0604C6.10361 10.0604 4.97693 8.92954 4.97693 7.538C4.97693 6.14226 6.10361 5.01558 7.49935 5.01558C8.89089 5.01558 10.0218 6.14226 10.0218 7.538C10.0218 8.92954 8.89089 10.0604 7.49935 10.0604ZM7.49935 3.64507C5.34689 3.64507 3.60642 5.38554 3.60642 7.538C3.60642 9.68627 5.34689 11.4309 7.49935 11.4309C9.64762 11.4309 11.3923 9.68627 11.3923 7.538C11.3923 5.38554 9.64762 3.64507 7.49935 3.64507Z" fill="#202020"/>
<path d="M11.5242 2.58974C11.0239 2.58974 10.6161 2.99753 10.6161 3.49781C10.6161 3.99809 11.0239 4.40168 11.5242 4.40168C12.0245 4.40168 12.4281 3.99809 12.4281 3.49781C12.4281 2.99753 12.0245 2.58974 11.5242 2.58974Z" fill="#202020"/>
</svg>
